PathFileType	4	(X/Y/Z)	C:/Users/opensim2020/Desktop/walking_exp_matlab/subject02_walking11_straight_02.trc	
DataRate	CameraRate	NumFrames	NumMarkers	Units	OrigDataRate	OrigDataStartFrame	OrigNumFrames	
100.00	100.00	8	42	mm	100.00	1662	230	
Frame#	Time	LFHD			RFHD			LBHD			RBHD			C7			T10			CLAV			STRN			RBAK			LSHO			LUPA			LELB			LFRM			LWRA			LWRB			LFIN			RSHO			RUPA			RELB			RFRM			RWRA			RWRB			RFIN			LASI			RASI			LPSI			RPSI			LTHI			LKNE			LTIB			LANK			LHEE			LTOE			RTHI			RKNE			RTIB			RANK			RHEE			RTOE			*39			*40			*41			
		X1	Y1	Z1	X2	Y2	Z2	X3	Y3	Z3	X4	Y4	Z4	X5	Y5	Z5	X6	Y6	Z6	X7	Y7	Z7	X8	Y8	Z8	X9	Y9	Z9	X10	Y10	Z10	X11	Y11	Z11	X12	Y12	Z12	X13	Y13	Z13	X14	Y14	Z14	X15	Y15	Z15	X16	Y16	Z16	X17	Y17	Z17	X18	Y18	Z18	X19	Y19	Z19	X20	Y20	Z20	X21	Y21	Z21	X22	Y22	Z22	X23	Y23	Z23	X24	Y24	Z24	X25	Y25	Z25	X26	Y26	Z26	X27	Y27	Z27	X28	Y28	Z28	X29	Y29	Z29	X30	Y30	Z30	X31	Y31	Z31	X32	Y32	Z32	X33	Y33	Z33	X34	Y34	Z34	X35	Y35	Z35	X36	Y36	Z36	X37	Y37	Z37	X38	Y38	Z38	X39	Y39	Z39	X40	Y40	Z40	X41	Y41	Z41	X42	Y42	Z42	

29	0.280	-909.50549	675.20282	1748.41504	-1052.50940	690.67786	1733.69580	-888.55322	799.50720	1666.15112	-1028.98181	827.01190	1648.71570	-960.64709	857.31647	1532.50708	-960.25977	920.67426	1260.59778	-961.12061	719.89172	1459.55750	-975.54211	676.33710	1284.91077	-1017.68005	927.00458	1362.57983	-788.57098	772.13892	1506.54614	-698.68524	742.74725	1312.59644	-683.43207	703.77777	1174.90857	-685.56976	640.97040	1056.45386	-741.45642	551.07263	965.69385	-698.73877	583.87524	948.58990	-704.19867	538.40674	900.95154	-1152.59546	796.54187	1496.22412	-1230.30188	841.50153	1305.09705	-1250.01990	834.45337	1159.25354	-1274.36804	799.95007	1044.15613	-1262.65930	738.90527	922.08624	-1287.72522	789.24994	914.78149	-1296.28687	747.17914	855.89557	-847.44702	687.40350	988.76251	-1104.07935	707.32501	982.44061	-913.33966	901.96521	1039.02722	-1026.85205	916.12549	1039.21460	-807.35828	768.44452	678.20654	-840.85956	818.64343	479.34979	-842.62579	892.20361	297.51175	-888.47424	912.45734	76.69759	-938.07184	952.92975	50.17614	-884.92889	756.35339	38.30214	-1195.44739	735.74579	690.11340	-1183.09070	678.50281	489.47308	-1189.05054	730.19012	309.97430	-1163.32300	749.38214	116.96709	-1101.85864	767.40082	58.45530	-1216.89941	611.82697	56.77594	-985.58301	789.49506	1810.38037	-3357.27710	2845.86011	1034.17725			 
30	0.290	-911.55841	667.63568	1747.99866	-1054.34106	683.68829	1732.59119	-890.09229	791.97809	1665.46570	-1030.22217	819.91772	1647.61609	-961.66290	850.15900	1531.81677	-961.21008	913.68152	1260.02600	-962.18146	712.67908	1458.73560	-976.35535	669.41364	1283.97766	-1018.28607	919.88947	1361.78162	-789.70490	764.75494	1506.02209	-699.65265	734.12128	1312.60522	-684.20612	693.52234	1175.30334	-686.87299	629.49377	1057.86462	-743.43610	538.45929	968.36981	-700.58160	570.46820	950.72540	-706.21735	524.34735	903.82928	-1153.73938	789.41559	1495.10388	-1231.00281	835.39252	1304.19873	-1250.63123	829.18829	1158.33862	-1274.93665	795.44745	1042.98914	-1263.72644	735.06366	920.70007	-1288.43445	785.57269	913.57922	-1297.26599	743.88000	854.43805	-848.24500	681.09344	988.18140	-1104.80737	699.97107	981.88757	-914.45612	895.32196	1038.26404	-1028.02014	909.12604	1038.31641	-807.94281	763.99304	677.57849	-841.35089	815.48389	479.01443	-843.09753	890.56464	297.76871	-888.66895	912.26923	76.95431	-938.29242	952.81848	50.53865	-884.84552	756.26190	38.23374	-1195.65283	727.31470	689.39136	-1182.39099	668.43573	488.87289	-1190.32861	712.94440	307.35907	-1166.48694	724.99622	113.59229	-1105.90771	742.20038	54.47663	-1218.07983	584.47076	58.43409	-987.32593	782.37408	1809.58801	-3360.41479	2845.22046	1034.27478			 
31	0.300	-913.42053	660.03564	1747.42114	-1056.46411	676.71802	1731.50085	-891.49756	784.78937	1664.97791	-1031.66479	812.95642	1646.63733	-962.77582	842.90942	1531.04895	-962.17395	906.55792	1259.33521	-963.34760	705.45197	1457.68689	-977.29834	662.41968	1283.06409	-1019.06616	912.79919	1360.98633	-790.91223	757.30212	1505.56274	-700.76483	725.51569	1312.45166	-685.05511	683.68683	1175.68469	-688.20428	617.61627	1058.94006	-745.52185	526.11432	970.77386	-702.36426	557.68884	952.63025	-708.25323	510.89600	906.43604	-1154.57019	782.36804	1493.90442	-1231.87146	829.23309	1303.28259	-1251.31409	823.78601	1157.36475	-1275.70837	790.87286	1041.81226	-1264.85596	731.05774	919.12885	-1289.48840	781.68768	912.45544	-1298.25061	740.36737	852.86786	-848.97852	674.64166	987.47552	-1105.60999	692.48090	981.30621	-915.72833	888.59460	1037.47217	-1029.28870	901.97339	1037.42871	-808.51337	759.64600	676.92145	-841.93378	812.26416	478.62967	-843.45300	888.68280	297.93854	-888.84015	912.04279	77.21252	-938.45557	952.94116	50.92196	-884.78436	756.19928	38.18968	-1195.82922	719.14960	688.55426	-1181.25195	658.71478	488.10089	-1192.07227	695.82703	305.15280	-1169.42505	700.92896	110.71319	-1109.58618	717.14929	50.87167	-1218.87451	557.65686	60.77757	-989.44580	775.21130	1808.44739	-3357.25952	2845.84155	1034.34314			 
32	0.310	-915.82629	653.01367	1746.29089	-1058.46973	669.69470	1730.33459	-893.09851	777.40790	1664.46960	-1033.11719	805.83606	1645.51489	-963.97040	835.67499	1530.21826	-963.34900	899.31439	1258.40369	-964.50958	698.26202	1456.90869	-978.31226	655.47278	1282.00562	-1019.93726	905.72473	1360.13647	-792.17865	749.94196	1505.09827	-701.87238	717.32739	1312.36731	-686.03113	673.95752	1175.82715	-689.56580	606.56311	1059.77185	-747.33917	514.33405	973.15399	-703.98334	545.63934	954.33148	-710.28290	498.04770	908.81604	-1155.84851	775.29041	1492.82178	-1232.81018	822.96722	1302.29431	-1251.88477	818.17639	1156.20703	-1276.82251	786.17401	1040.67200	-1265.99768	727.00543	917.54510	-1290.28589	777.82251	911.12378	-1299.31262	736.92578	851.44989	-849.73596	668.18182	986.62677	-1106.44360	684.77551	980.77264	-917.18066	881.79773	1036.68872	-1030.77783	894.74890	1036.55688	-809.27332	754.84021	676.00452	-842.59546	809.03741	478.22836	-843.91632	886.79736	298.15106	-889.02625	911.74341	77.53262	-938.64117	952.78809	51.31198	-884.68475	756.13428	38.16781	-1196.04468	711.14502	687.57031	-1180.42847	649.21637	487.37332	-1193.60608	679.09967	303.24008	-1172.28613	677.21899	108.60018	-1113.17603	692.14813	47.88513	-1219.50098	531.10748	63.66164	-991.39612	768.03625	1807.76587	-3357.40894	2845.86914	1034.30371			 
33	0.320	-917.96472	645.14856	1745.83423	-1060.50793	662.66602	1729.12048	-894.91968	769.85406	1663.71851	-1034.71667	798.79309	1644.46045	-965.27496	828.42529	1529.34204	-964.60864	892.16113	1257.60657	-965.92163	691.00165	1455.81262	-979.38318	648.39642	1281.03711	-1020.88721	898.54187	1359.23096	-793.58875	742.49084	1504.53601	-703.20398	708.93054	1312.13428	-687.02832	664.75562	1175.98999	-690.98859	596.13525	1060.51367	-749.23212	502.88223	975.08533	-705.84088	533.84155	955.89099	-712.21490	485.64355	911.02216	-1157.22375	768.19653	1491.60803	-1233.87903	816.63104	1301.23560	-1252.83020	812.58710	1155.12048	-1278.05225	781.30341	1039.50403	-1267.42114	722.85120	915.98505	-1291.41211	773.77216	909.88763	-1300.46997	733.30402	849.91187	-850.44147	661.62097	985.74005	-1107.09949	677.08667	980.09235	-918.77209	874.89709	1035.86951	-1032.41028	887.32452	1035.64197	-809.87366	750.58008	675.53223	-843.23584	805.80316	477.90753	-844.38977	884.90387	298.49057	-889.19592	911.49561	77.89029	-938.90485	952.60864	51.81867	-884.59241	756.02875	38.12016	-1196.33374	703.34393	686.46716	-1179.80127	639.94177	486.66486	-1194.73877	662.48840	301.60739	-1175.06628	653.91882	106.93676	-1116.49109	667.82013	45.50053	-1219.48706	505.30731	66.95716	-993.55713	760.83057	1806.77588	-3360.38330	2845.14478	1034.23364			 
34	0.330	-920.21765	637.54498	1745.10315	-1062.94104	655.49237	1727.78552	-896.61017	762.59454	1663.07373	-1036.36670	791.67670	1643.35010	-966.71515	821.18274	1528.42065	-965.92365	885.09253	1256.78003	-967.29211	683.81238	1454.97192	-980.50464	641.20709	1279.77600	-1022.07074	891.45276	1358.31775	-794.91858	735.07574	1504.12366	-704.53552	700.83612	1311.97620	-688.31848	655.60107	1175.95911	-692.48798	585.73877	1061.36780	-751.10657	491.81827	976.92841	-707.66461	522.58026	957.21655	-714.19940	473.76321	912.99957	-1158.63806	761.15808	1490.37451	-1235.02954	810.30762	1300.11389	-1254.00916	807.08099	1154.15088	-1278.83386	776.41351	1038.09131	-1268.67114	718.60016	914.40454	-1292.65137	769.62000	908.57758	-1301.65417	729.55884	848.28650	-851.01343	654.93298	984.77545	-1107.86987	669.14722	979.44342	-920.47083	867.91565	1034.94702	-1034.18066	879.72052	1034.70105	-810.67896	745.83960	674.94519	-843.94452	802.53412	477.65814	-844.96185	883.05957	298.82446	-889.36859	911.29102	78.38428	-939.23492	952.21448	52.39679	-884.53497	755.97589	38.09398	-1196.53442	695.80743	685.32898	-1179.35217	630.87842	486.01614	-1195.96216	646.60364	300.42349	-1177.58252	631.25769	105.87037	-1119.67981	644.35181	44.06351	-1219.26233	480.42023	70.44138	-995.92719	753.65881	1805.90210	-3360.43408	2845.21606	1034.25122			 
35	0.340	-922.91180	630.86584	1743.98425	-1065.25122	648.49689	1726.61035	-898.50403	755.11957	1662.35742	-1038.18567	784.56793	1642.23169	-968.24170	813.89423	1527.48682	-967.48035	877.75867	1255.84985	-968.83868	676.44641	1454.02637	-981.74585	633.94531	1278.94885	-1023.13501	884.06708	1357.24683	-796.58252	727.57300	1503.32861	-706.01611	692.78528	1311.68127	-689.60419	646.76221	1175.78186	-694.15283	575.84021	1061.72595	-752.78119	481.14331	978.51947	-709.55334	511.70517	958.39288	-716.13037	462.54871	914.63556	-1160.18445	753.91101	1488.90308	-1236.22290	803.86865	1298.91418	-1255.15686	801.27490	1152.98901	-1280.19238	771.30597	1036.79333	-1270.05603	714.19330	912.64691	-1293.82800	765.41833	907.15656	-1302.97241	725.71460	846.58282	-851.59088	648.33594	983.60455	-1108.65942	661.01074	978.75073	-922.36560	860.85181	1033.99255	-1036.11975	872.08154	1033.72876	-811.53265	741.15137	674.31421	-844.67957	799.30383	477.40613	-845.60468	881.34534	299.30762	-889.59338	910.98309	78.85564	-939.50604	952.25458	53.10807	-884.45575	755.91882	38.03500	-1197.23914	688.27368	684.19495	-1179.05139	622.08588	485.32474	-1197.07385	631.23206	299.46631	-1179.78394	609.16925	105.26008	-1122.32202	621.79767	43.02506	-1218.51050	456.41837	73.95460	-998.23071	746.36169	1804.81702	-3357.37793	2845.88306	1034.22595			 
36	0.350	-925.26715	623.49115	1743.38599	-1067.65674	641.40515	1725.32312	-900.56226	747.71100	1661.73901	-1040.03381	777.38745	1641.10583	-969.80707	806.53271	1526.53394	-969.13239	870.45526	1254.91492	-970.48950	669.05725	1453.08948	-983.05621	626.67084	1277.97095	-1024.40784	876.77692	1356.18433	-798.18127	719.97900	1502.79456	-707.69513	684.65869	1311.34021	-690.87189	638.41937	1175.68054	-695.77484	566.56903	1062.00757	-754.56323	471.02606	979.80798	-711.39258	501.46417	959.23016	-718.06360	451.83087	916.05127	-1161.76172	746.99554	1487.62830	-1237.61658	797.46228	1297.67688	-1256.37964	795.35968	1151.75500	-1281.61865	766.21356	1035.48010	-1271.63342	709.70886	911.02283	-1295.24121	761.04333	905.77820	-1304.43799	721.73950	844.98590	-852.19904	641.57611	982.63568	-1109.53271	652.70459	978.03461	-924.39972	853.60706	1032.98376	-1038.20142	864.26135	1032.71350	-812.48730	736.01886	673.55408	-845.32239	796.08875	477.24612	-846.31012	879.54352	299.82114	-889.77917	910.72803	79.45539	-939.75800	951.92340	53.85445	-884.34595	755.75269	37.98235	-1197.77112	680.91638	683.01581	-1178.73254	613.43701	484.62451	-1197.96155	616.36884	298.69092	-1181.67444	587.96979	105.06521	-1124.97766	599.57220	42.40111	-1217.64856	433.26511	77.64601	-1000.74860	739.08405	1803.81189	-3360.24414	2845.12671	1034.15820			 
